<?xml version="1.0" encoding="UTF-8" standalone="no"?>
<svg
   width="2998.1165"
   height="452.05035"
   viewBox="0 0 2998.1165 452.05035"
   version="1.1"
   xml:space="preserve"
   style="clip-rule:evenodd;fill-rule:evenodd;stroke-linejoin:round;stroke-miterlimit:2"
   id="svg129"
   sodipodi:docname="logo.svg"
   inkscape:version="1.1.1 (c3084ef, 2021-09-22)"
   xmlns:inkscape="http://www.inkscape.org/namespaces/inkscape"
   xmlns:sodipodi="http://sodipodi.sourceforge.net/DTD/sodipodi-0.dtd"
   xmlns="http://www.w3.org/2000/svg"
   xmlns:svg="http://www.w3.org/2000/svg"
   xmlns:serif="http://www.serif.com/"><defs
   id="defs133" /><sodipodi:namedview
   id="namedview131"
   pagecolor="#ffffff"
   bordercolor="#666666"
   borderopacity="1.0"
   inkscape:pageshadow="2"
   inkscape:pageopacity="0.0"
   inkscape:pagecheckerboard="0"
   showgrid="false"
   inkscape:zoom="0.1866183"
   inkscape:cx="1500.3888"
   inkscape:cy="225.05832"
   inkscape:window-width="1249"
   inkscape:window-height="798"
   inkscape:window-x="0"
   inkscape:window-y="0"
   inkscape:window-maximized="0"
   inkscape:current-layer="svg129" />
    <g
   id="Vrstva-1"
   serif:id="Vrstva 1"
   transform="matrix(4.16667,0,0,4.16667,-253.71937,-1014.1341)">
        <g
   transform="translate(497.407,288.149)"
   id="g90">
            <path
   d="m 0,18.981 h 22.954 v 13.227 c -6.09,8.263 -15.402,12.395 -27.936,12.395 -8.936,0 -16.174,-3.074 -21.708,-9.224 -5.539,-6.148 -8.304,-14.776 -8.304,-25.888 0,-11.152 2.738,-19.792 8.214,-25.92 5.476,-6.13 12.702,-9.194 21.678,-9.194 7.514,0 13.564,1.592 18.15,4.774 4.588,3.186 7.118,7.582 7.594,13.196 h 11.922 c -0.83,-8.46 -4.716,-15.212 -11.658,-20.254 -6.938,-5.04 -15.646,-7.562 -26.124,-7.562 -12.458,0 -22.522,4.084 -30.192,12.248 -7.67,8.166 -11.506,19.07 -11.506,32.712 0,13.602 3.884,24.496 11.654,32.68 7.77,8.186 17.902,12.279 30.398,12.279 12.654,0 21.926,-3.538 27.818,-10.616 l 3.025,9.133 h 8.127 V 8.601 H 0 Z"
   style="fill:#144997;fill-rule:nonzero"
   id="path88" />
        </g>
        <g
   transform="translate(602.214,291.064)"
   id="g94">
            <path
   d="m 0,13.218 c 0,11.43 -1.92,18.942 -5.754,22.542 -3.836,3.596 -9.452,5.394 -16.844,5.394 -7.396,0 -13.01,-1.798 -16.846,-5.394 -3.836,-3.6 -5.752,-11.112 -5.752,-22.542 v -51.534 h -11.506 v 51.712 c 0,7 0.66,13.148 1.984,18.446 1.326,5.3 4.488,9.906 9.489,13.82 5.005,3.916 12.547,5.872 22.631,5.872 7.63,0 13.976,-1.236 19.037,-3.706 5.063,-2.47 8.849,-6.198 11.359,-11.182 2.512,-4.98 3.765,-12.73 3.765,-23.25 V -38.316 H 0 Z"
   style="fill:#144997;fill-rule:nonzero"
   id="path92" />
        </g>
        <g
   transform="translate(639.727,291.353)"
   id="g98">
            <path
   d="M 0,51.18 V -38.607 H -11.509 V 51.18 Z"
   style="fill:#144997;fill-rule:nonzero"
   id="path96" />
        </g>
        <g
   transform="translate(678.161,293.547)"
   id="g102">
            <path
   d="M 0,8.186 V 7.948 C 6.05,6.724 10.815,4.094 14.294,0.06 c 3.479,-4.034 5.22,-9.054 5.22,-15.066 0,-5.258 -1.344,-11.4 -4.033,-15.592 C 12.792,-34.79 9.313,-37.538 5.042,-38.842 0.77,-40.148 -4.725,-40.8 -11.448,-40.8 H -30.92 v 9.548 h 19.947 c 12.416,0 18.624,6.362 18.624,16.246 0,5.536 -1.611,9.43 -4.834,11.686 -3.223,2.252 -8.412,3.38 -15.569,3.38 H -30.92 v 10.32 h 13.779 c 4.429,0 8.34,1.304 11.743,3.914 3.402,2.61 5.834,5.97 7.297,10.084 l 8.185,24.608 H 22.538 L 13.821,23.902 C 10.655,15.362 6.05,10.122 0,8.186"
   style="fill:#144997;fill-rule:nonzero"
   id="path100" />
        </g>
        <g
   transform="translate(768.875,342.599)"
   id="g106">
            <path
   d="m 0,-89.852 v 51.534 c 0,11.429 -1.916,18.944 -5.752,22.542 -3.836,3.597 -9.452,5.396 -16.845,5.396 -7.395,0 -13.009,-1.799 -16.843,-5.396 -3.838,-3.598 -5.754,-11.113 -5.754,-22.542 V -89.852 H -56.7 v 51.713 c 0,6.998 0.66,13.149 1.984,18.447 1.325,5.298 4.487,9.904 9.489,13.818 5.004,3.916 12.546,5.874 22.63,5.874 7.631,0 13.977,-1.238 19.038,-3.706 5.063,-2.473 8.849,-6.2 11.359,-11.183 2.512,-4.981 3.765,-12.731 3.765,-23.25 v -51.713 z"
   style="fill:#144997;fill-rule:nonzero"
   id="path104" />
        </g>
        <g
   transform="translate(60.8926,351.884)"
   id="g110">
            <path
   d="M 0,-79.264 V 0 H 108.352 V -14.538 H 14.684 v -64.726 z"
   style="fill:#144997;fill-rule:nonzero"
   id="path108" />
        </g>
        <g
   transform="translate(61.0347,322.748)"
   id="g114">
            <path
   d="m 0,-79.356 v 14.54 H 93.666 V 0 h 14.684 v -79.356 z"
   style="fill:#1e77ba;fill-rule:nonzero"
   id="path112" />
        </g>
        <g
   transform="translate(416.025,290.824)"
   id="g118">
            <path
   d="M 0,13.628 V 51.582 H -11.52 V 13.628 l -35.158,-51.582 h 14.01 L -5.7,3.606 21.144,-37.954 H 35.16 Z"
   style="fill:#144997;fill-rule:nonzero"
   id="path116" />
        </g>
        <g
   transform="translate(284.013,252.871)"
   id="g122">
            <path
   d="M 0,89.536 H -15.23 L -47.198,44.604 -61.394,58.49 V 89.536 H -72.912 V 0 h 11.518 V 44.86 L -17.272,0 H -1.746 L -39.19,36.714 Z"
   style="fill:#144997;fill-rule:nonzero"
   id="path120" />
        </g>
        <g
   transform="translate(360.541,263.166)"
   id="g126">
            <path
   d="M 0,68.946 V 79.242 H -66.658 V -10.296 H -2.086 V 0 h -53.05 v 27.854 h 49.614 v 10.298 h -49.614 v 30.794 z"
   style="fill:#144997;fill-rule:nonzero"
   id="path124" />
        </g>
    </g>
</svg>
